# xmcd CD database file
#
# Track frame offsets:
#	150
#	43812
#	72986
#	103788
#	116511
#	135144
#	160619
#	197880
#	224677
#	235641
#
# Disc length: 3766 seconds
#
# Revision: 0
# Processed by: cddbd v1.5.2PL0 Copyright (c) Steve Scherf et al.
# Submitted via: CDex 1.51
#
DISCID=8a0eb40a
DTITLE=Braff Blaser Duo - YAY
DYEAR=1900
DGENRE=Jazz
TTITLE0=Yay
TTITLE1=Tama
TTITLE2=Caravan
TTITLE3=Manon
TTITLE4=Gugglie's
TTITLE5=Uncle Sam
TTITLE6=Yele
TTITLE7=Sans titre
TTITLE8=Un petit dernier
TTITLE9=Yay (live)
EXTD=
EXTT0=
EXTT1=
EXTT2=
EXTT3=
EXTT4=
EXTT5=
EXTT6=
EXTT7=
EXTT8=
EXTT9=
PLAYORDER=
